<?xml version="1.0" standalone="no"?>
<!DOCTYPE svg PUBLIC "-//W3C//DTD SVG 20010904//EN"
 "http://www.w3.org/TR/2001/REC-SVG-20010904/DTD/svg10.dtd">
<svg version="1.0" xmlns="http://www.w3.org/2000/svg"
 width="512.000000pt" height="512.000000pt" viewBox="0 0 512.000000 512.000000"
 preserveAspectRatio="xMidYMid meet">
<metadata>
Created by potrace 1.14, written by Peter Selinger 2001-2017
</metadata>
<g transform="translate(0.000000,512.000000) scale(0.100000,-0.100000)"
fill="#000000" stroke="none">
<path d="M3900 5040 l0 -80 60 0 60 0 0 80 0 80 -60 0 -60 0 0 -80z"/>
<path d="M3720 4880 l0 -60 80 0 80 0 0 60 0 60 -80 0 -80 0 0 -60z"/>
<path d="M4040 4880 l0 -60 80 0 80 0 0 60 0 60 -80 0 -80 0 0 -60z"/>
<path d="M3900 4720 l0 -80 60 0 60 0 0 80 0 80 -60 0 -60 0 0 -80z"/>
<path d="M1220 4560 l0 -80 60 0 60 0 0 80 0 80 -60 0 -60 0 0 -80z"/>
<path d="M1040 4400 l0 -60 80 0 80 0 0 60 0 60 -80 0 -80 0 0 -60z"/>
<path d="M1360 4400 l0 -60 80 0 80 0 0 60 0 60 -80 0 -80 0 0 -60z"/>
<path d="M1220 4240 l0 -80 60 0 60 0 0 80 0 80 -60 0 -60 0 0 -80z"/>
<path d="M1035 3693 c-11 -2 -58 -11 -105 -20 -166 -30 -366 -124 -512 -241
-189 -150 -327 -370 -389 -617 -34 -136 -35 -350 -3 -507 13 -65 35 -148 49
-185 26 -69 103 -218 129 -250 114 -141 161 -187 271 -264 300 -208 759 -246
1136 -93 152 62 317 161 463 278 l69 56 58 -55 c62 -59 87 -67 119 -35 19 19
20 33 20 290 0 257 -1 271 -20 290 -19 19 -33 20 -290 20 -257 0 -271 -1 -290
-20 -32 -32 -24 -57 35 -120 l56 -58 -73 -54 c-232 -175 -444 -253 -664 -244
-199 8 -350 70 -470 194 -63 64 -108 143 -145 253 -30 87 -32 105 -33 229 -1
115 3 146 22 210 26 82 73 173 122 234 l31 40 -43 38 c-24 21 -45 38 -48 38
-8 -1 -66 -80 -104 -144 -32 -54 -76 -169 -92 -241 -13 -61 -12 -242 1 -320
19 -111 31 -148 77 -240 99 -199 266 -331 493 -391 107 -28 330 -25 450 5 192
50 430 185 589 334 43 41 45 65 10 106 l-26 31 146 0 146 0 0 -147 0 -146 -23
21 c-37 35 -70 28 -139 -31 -343 -288 -619 -400 -968 -392 -123 3 -219 18
-315 51 -408 138 -655 506 -652 969 1 315 148 606 399 795 129 98 272 160 469
206 13 3 85 7 159 9 162 4 261 -14 413 -75 124 -50 230 -111 360 -208 154
-114 255 -209 677 -631 481 -481 536 -533 685 -647 245 -186 464 -270 701
-272 402 -2 682 206 786 583 40 146 31 359 -21 508 -86 245 -305 442 -579 519
-63 18 -103 22 -222 22 -128 -1 -155 -4 -233 -27 -202 -62 -413 -200 -651
-426 -154 -147 -176 -170 -175 -183 0 -7 18 -28 39 -46 l39 -33 64 63 c335
330 574 491 786 525 57 10 201 10 261 1 254 -38 485 -235 568 -485 23 -69 26
-94 26 -218 0 -134 -2 -144 -35 -240 -103 -299 -338 -452 -674 -440 -264 9
-513 138 -819 425 -44 41 -256 251 -471 466 -214 215 -428 424 -475 466 -313
275 -538 401 -835 464 -35 7 -301 13 -330 7z"/>
<path d="M3785 3689 c-298 -49 -570 -198 -874 -476 l-63 -58 41 -45 40 -44 28
26 c105 98 202 177 308 250 301 210 589 276 920 213 64 -13 184 -58 268 -103
394 -207 602 -627 531 -1072 -7 -47 -18 -101 -23 -120 -102 -383 -400 -648
-796 -707 -75 -12 -313 -8 -375 5 -30 7 -64 14 -76 16 -106 20 -351 135 -464
218 -67 49 -241 189 -290 233 -30 27 -233 227 -450 445 -218 217 -431 428
-474 468 -385 357 -677 482 -1005 428 -52 -8 -98 -19 -102 -23 -5 -5 -2 -32 7
-62 13 -46 18 -52 37 -47 133 33 287 31 402 -5 126 -39 302 -140 425 -244 138
-117 210 -186 610 -585 234 -234 454 -451 490 -482 36 -32 79 -69 95 -83 215
-187 517 -347 722 -384 32 -6 69 -14 83 -17 14 -3 88 -7 165 -9 219 -5 376 26
550 110 273 132 467 366 556 673 18 63 23 86 39 192 9 59 6 295 -5 345 -3 17
-10 48 -15 70 -43 192 -155 393 -299 536 -173 173 -403 291 -646 333 -89 15
-283 18 -360 5z"/>
<path d="M714 3251 c-34 -21 -65 -44 -69 -50 -4 -7 10 -32 31 -57 20 -25 40
-41 43 -36 3 5 31 24 61 42 30 19 57 35 59 37 8 6 -42 103 -53 103 -6 0 -39
-18 -72 -39z"/>
<path d="M2701 3016 l-44 -45 24 -29 c47 -58 56 -59 109 -7 l47 47 -38 39
c-21 21 -42 39 -47 39 -4 0 -27 -20 -51 -44z"/>
<path d="M2300 980 l0 -80 60 0 60 0 0 80 0 80 -60 0 -60 0 0 -80z"/>
<path d="M4640 900 l0 -80 60 0 60 0 0 80 0 80 -60 0 -60 0 0 -80z"/>
<path d="M2120 820 l0 -60 80 0 80 0 0 60 0 60 -80 0 -80 0 0 -60z"/>
<path d="M2440 820 l0 -60 80 0 80 0 0 60 0 60 -80 0 -80 0 0 -60z"/>
<path d="M4460 740 l0 -60 80 0 80 0 0 60 0 60 -80 0 -80 0 0 -60z"/>
<path d="M4780 740 l0 -60 80 0 80 0 0 60 0 60 -80 0 -80 0 0 -60z"/>
<path d="M2300 660 l0 -80 60 0 60 0 0 80 0 80 -60 0 -60 0 0 -80z"/>
<path d="M4640 580 l0 -80 60 0 60 0 0 80 0 80 -60 0 -60 0 0 -80z"/>
<path d="M520 400 l0 -80 60 0 60 0 0 80 0 80 -60 0 -60 0 0 -80z"/>
<path d="M340 240 l0 -60 80 0 80 0 0 60 0 60 -80 0 -80 0 0 -60z"/>
<path d="M660 240 l0 -60 80 0 80 0 0 60 0 60 -80 0 -80 0 0 -60z"/>
<path d="M520 80 l0 -80 60 0 60 0 0 80 0 80 -60 0 -60 0 0 -80z"/>
</g>
</svg>
